<svg width="42" height="42" viewBox="0 0 42 42" fill="none" xmlns="http://www.w3.org/2000/svg">
<path d="M35.2639 28.7804H31.3738V24.8902C31.3738 24.1744 30.7928 23.5935 30.077 23.5935C29.3612 23.5935 28.7803 24.1744 28.7803 24.8902V28.7804H24.8901C24.1743 28.7804 23.5934 29.3613 23.5934 30.0771C23.5934 30.7929 24.1743 31.3738 24.8901 31.3738H28.7803V35.264C28.7803 35.9798 29.3612 36.5607 30.077 36.5607C30.7928 36.5607 31.3738 35.9798 31.3738 35.264V31.3738H35.2639C35.9797 31.3738 36.5607 30.7929 36.5607 30.0771C36.5607 29.3613 35.9797 28.7804 35.2639 28.7804Z" fill="black"/>
<path d="M19.0549 14.5164C16.5522 14.5164 14.5164 16.5522 14.5164 19.0549C14.5164 19.4128 14.8068 19.7033 15.1647 19.7033C15.5226 19.7033 15.8131 19.4128 15.8131 19.0549C15.8131 17.268 17.268 15.8131 19.0549 15.8131C19.4128 15.8131 19.7033 15.5226 19.7033 15.1647C19.7033 14.8068 19.4128 14.5164 19.0549 14.5164Z" fill="black"/>
<path d="M39.1542 22.7584V10.5082C39.1542 9.16346 38.1453 8.05346 36.8058 7.92638L29.4456 7.22614L28.0088 2.91193C27.4784 1.32084 25.995 0.252335 24.3183 0.252335H15.0895C13.4128 0.252335 11.9294 1.32084 11.399 2.91193L9.96093 7.22614L2.6007 7.92638C1.26117 8.05346 0.252319 9.16346 0.252319 10.5082V31.3738C0.252319 32.8041 1.41549 33.9673 2.84578 33.9673H19.0873C20.6952 38.4929 25.0069 41.7477 30.0771 41.7477C36.5115 41.7477 41.7476 36.5115 41.7476 30.0771C41.7476 27.3073 40.7725 24.7618 39.1542 22.7584ZM18.483 31.3738H2.84578V10.5082L11.8866 9.64713L13.8589 3.73275C14.0353 3.20239 14.5293 2.84579 15.0882 2.84579H24.317C24.8759 2.84579 25.3713 3.20239 25.5476 3.73275L27.5199 9.64713L36.5607 10.5082V20.3802C34.7051 19.1353 32.4747 18.4065 30.0771 18.4065C29.6077 18.4065 29.146 18.4428 28.6909 18.4973C28.097 14.0612 24.2989 10.6262 19.7033 10.6262C14.6979 10.6262 10.6262 14.6979 10.6262 19.7033C10.6262 24.2989 14.0612 28.097 18.4973 28.6909C18.4428 29.146 18.4065 29.6077 18.4065 30.0771C18.4065 30.5154 18.4351 30.9472 18.483 31.3738ZM13.2196 19.7033C13.2196 16.1282 16.1282 13.2196 19.7033 13.2196C23.0747 13.2196 25.8212 15.817 26.1272 19.1094C22.8686 20.2868 20.2868 22.8686 19.1094 26.1273C15.817 25.8212 13.2196 23.0748 13.2196 19.7033ZM30.0771 39.1542C25.0717 39.1542 21 35.0825 21 30.0771C21 25.0717 25.0717 21 30.0771 21C35.0825 21 39.1542 25.0717 39.1542 30.0771C39.1542 35.0825 35.0825 39.1542 30.0771 39.1542Z" fill="black"/>
</svg>
