<svg width="15" height="20" viewBox="0 0 15 20" fill="none" xmlns="http://www.w3.org/2000/svg">
<path d="M14.975 10C14.975 8.98892 14.1528 8.16667 13.1417 8.16667H12.225V5.41667C12.225 2.88942 10.1689 0.83334 7.64168 0.83334C5.11443 0.83334 3.05835 2.88942 3.05835 5.41667V8.16667H2.14168C1.1306 8.16667 0.30835 8.98892 0.30835 10V17.3333C0.30835 18.3444 1.1306 19.1667 2.14168 19.1667H13.1417C14.1528 19.1667 14.975 18.3444 14.975 17.3333V10ZM4.89168 5.41667C4.89168 3.90051 6.12552 2.66667 7.64168 2.66667C9.15785 2.66667 10.3917 3.90051 10.3917 5.41667V8.16667H4.89168V5.41667Z" fill="#8B8B8B"/>
</svg>
